<svg width="14" height="14" viewBox="0 0 14 14" fill="none" xmlns="http://www.w3.org/2000/svg">
<path d="M8 4.375C8 3.82272 7.55229 3.375 7 3.375C6.44772 3.375 6 3.82272 6 4.375L8 4.375ZM6 9.625C6 10.1773 6.44772 10.625 7 10.625C7.55228 10.625 8 10.1773 8 9.625H6ZM9.625 8C10.1773 8 10.625 7.55228 10.625 7C10.625 6.44772 10.1773 6 9.625 6V8ZM4.375 6C3.82272 6 3.375 6.44772 3.375 7C3.375 7.55228 3.82272 8 4.375 8V6ZM11.25 7C11.25 9.34721 9.34721 11.25 7 11.25V13.25C10.4518 13.25 13.25 10.4518 13.25 7H11.25ZM7 11.25C4.65279 11.25 2.75 9.34721 2.75 7H0.75C0.75 10.4518 3.54822 13.25 7 13.25V11.25ZM2.75 7C2.75 4.65279 4.65279 2.75 7 2.75V0.75C3.54822 0.75 0.75 3.54822 0.75 7H2.75ZM7 2.75C9.34721 2.75 11.25 4.65279 11.25 7H13.25C13.25 3.54822 10.4518 0.75 7 0.75V2.75ZM6 4.375L6 7L8 7L8 4.375L6 4.375ZM6 7V9.625H8V7H6ZM9.625 6H7V8H9.625V6ZM7 6H4.375V8H7V6Z" fill="black"/>
</svg>
