<svg width="36" height="36" viewBox="0 0 36 36" fill="none" xmlns="http://www.w3.org/2000/svg">
<path d="M28.5 15.75V9C28.5 7.34315 27.1569 6 25.5 6H7.5C5.84315 6 4.5 7.34315 4.5 9V20.7391C4.5 22.396 5.84315 23.7391 7.5 23.7391H9.84783V30L16.1087 23.7391H16.5M24.2446 27.587L28.1576 31.5V27.587H28.5C30.1569 27.587 31.5 26.2438 31.5 24.587V19.5C31.5 17.8431 30.1569 16.5 28.5 16.5H19.5C17.8431 16.5 16.5 17.8431 16.5 19.5V24.587C16.5 26.2438 17.8431 27.587 19.5 27.587H24.2446Z" stroke="black" stroke-width="2" stroke-linecap="round" stroke-linejoin="round"/>
</svg>
