<svg width="188" height="111" viewBox="0 0 188 111" fill="none" xmlns="http://www.w3.org/2000/svg">
<path d="M58.75 8.81818L58.4943 27.6364H55.5284L55.2727 8.81818H58.75ZM57.0114 35.2045C56.3807 35.2045 55.8395 34.9787 55.3878 34.527C54.9361 34.0753 54.7102 33.5341 54.7102 32.9034C54.7102 32.2727 54.9361 31.7315 55.3878 31.2798C55.8395 30.8281 56.3807 30.6023 57.0114 30.6023C57.642 30.6023 58.1832 30.8281 58.6349 31.2798C59.0866 31.7315 59.3125 32.2727 59.3125 32.9034C59.3125 33.321 59.206 33.7045 58.9929 34.054C58.7884 34.4034 58.5114 34.6847 58.1619 34.8977C57.821 35.1023 57.4375 35.2045 57.0114 35.2045Z" fill="black"/>
<rect x="75" y="5" width="113" height="80" rx="8" fill="#D9D9D9"/>
<circle cx="30" cy="59" r="20" fill="#858585"/>
<path opacity="0.3" d="M0 95C0 87.268 6.26801 81 14 81H46C53.732 81 60 87.268 60 95V111H0V95Z" fill="#858585"/>
<rect x="88" y="19" width="90" height="20" rx="4" fill="#919191"/>
<rect x="88" y="19" width="90" height="20" rx="4" fill="#919191"/>
<rect x="88" y="19" width="90" height="20" rx="4" fill="#FA6565"/>
<path d="M169.606 30.8549C170.13 31.0296 170.696 30.7464 170.871 30.2225C171.045 29.6985 170.762 29.1322 170.238 28.9576L169.606 30.8549ZM167.812 29.2031H166.812C166.812 29.6336 167.088 30.0157 167.496 30.1518L167.812 29.2031ZM168.812 26.263C168.812 25.7108 168.365 25.263 167.812 25.263C167.26 25.263 166.812 25.7108 166.812 26.263H168.812ZM170.238 28.9576L168.129 28.2544L167.496 30.1518L169.606 30.8549L170.238 28.9576ZM168.812 29.2031V26.263H166.812V29.2031H168.812ZM172.438 28.5C172.438 31.0543 170.367 33.125 167.812 33.125V35.125C171.471 35.125 174.438 32.1589 174.438 28.5H172.438ZM167.812 33.125C165.258 33.125 163.188 31.0543 163.188 28.5H161.188C161.188 32.1589 164.154 35.125 167.812 35.125V33.125ZM163.188 28.5C163.188 25.9457 165.258 23.875 167.812 23.875V21.875C164.154 21.875 161.188 24.8411 161.188 28.5H163.188ZM167.812 23.875C170.367 23.875 172.438 25.9457 172.438 28.5H174.438C174.438 24.8411 171.471 21.875 167.812 21.875V23.875Z" fill="black"/>
<rect x="88" y="47" width="90" height="20" rx="4" fill="#919191"/>
<rect x="88" y="47" width="90" height="20" rx="4" fill="#919191"/>
<rect x="88" y="47" width="90" height="20" rx="4" fill="#FA6565"/>
<path d="M169.606 58.8549C170.13 59.0296 170.696 58.7464 170.871 58.2225C171.045 57.6985 170.762 57.1322 170.238 56.9576L169.606 58.8549ZM167.812 57.2031H166.812C166.812 57.6336 167.088 58.0157 167.496 58.1518L167.812 57.2031ZM168.812 54.263C168.812 53.7108 168.365 53.263 167.812 53.263C167.26 53.263 166.812 53.7108 166.812 54.263H168.812ZM170.238 56.9576L168.129 56.2544L167.496 58.1518L169.606 58.8549L170.238 56.9576ZM168.812 57.2031V54.263H166.812V57.2031H168.812ZM172.438 56.5C172.438 59.0543 170.367 61.125 167.812 61.125V63.125C171.471 63.125 174.438 60.1589 174.438 56.5H172.438ZM167.812 61.125C165.258 61.125 163.188 59.0543 163.188 56.5H161.188C161.188 60.1589 164.154 63.125 167.812 63.125V61.125ZM163.188 56.5C163.188 53.9457 165.258 51.875 167.812 51.875V49.875C164.154 49.875 161.188 52.8411 161.188 56.5H163.188ZM167.812 51.875C170.367 51.875 172.438 53.9457 172.438 56.5H174.438C174.438 52.8411 171.471 49.875 167.812 49.875V51.875Z" fill="black"/>
</svg>
