<svg width="311" height="174" viewBox="0 0 311 174" fill="none" xmlns="http://www.w3.org/2000/svg">
<circle cx="90" cy="122" r="20" fill="#858585"/>
<path opacity="0.3" d="M60 158C60 150.268 66.268 144 74 144H106C113.732 144 120 150.268 120 158V174H60V158Z" fill="#858585"/>
<circle cx="216" cy="122" r="20" fill="#858585"/>
<path opacity="0.3" d="M186 158C186 150.268 192.268 144 200 144H232C239.732 144 246 150.268 246 158V174H186V158Z" fill="#858585"/>
<rect width="120" height="80" rx="6" fill="#D9D9D9"/>
<rect x="15" y="12" width="90" height="20" rx="4" fill="#919191"/>
<rect x="15" y="12" width="90" height="20" rx="4" fill="#919191"/>
<rect x="15" y="12" width="90" height="20" rx="4" fill="#E8EDA2"/>
<rect x="15" y="41" width="90" height="20" rx="4" fill="#919191"/>
<rect x="15" y="41" width="90" height="20" rx="4" fill="#919191"/>
<rect x="15" y="41" width="90" height="20" rx="4" fill="#73E4D2"/>
<rect x="191" y="14" width="120" height="80" rx="6" fill="#D9D9D9"/>
<rect x="206" y="26" width="90" height="20" rx="4" fill="#919191"/>
<rect x="206" y="26" width="90" height="20" rx="4" fill="#919191"/>
<rect x="206" y="26" width="90" height="20" rx="4" fill="#E8EDA2"/>
<rect x="206" y="55" width="90" height="20" rx="4" fill="#919191"/>
<rect x="206" y="55" width="90" height="20" rx="4" fill="#919191"/>
<rect x="206" y="55" width="90" height="20" rx="4" fill="#D18080"/>
<path d="M104.698 21.6013C104.478 21.7679 104.435 22.0814 104.601 22.3017L107.316 25.8904C107.483 26.1106 107.796 26.1541 108.017 25.9875C108.237 25.8209 108.28 25.5073 108.114 25.2871L105.7 22.0971L108.89 19.6838C109.111 19.5172 109.154 19.2036 108.987 18.9834C108.821 18.7632 108.507 18.7197 108.287 18.8863L104.698 21.6013ZM206.302 36.3987C206.522 36.2321 206.565 35.9186 206.399 35.6983L203.684 32.1096C203.517 31.8894 203.204 31.8459 202.983 32.0125C202.763 32.1791 202.72 32.4927 202.886 32.7129L205.3 35.9029L202.11 38.3162C201.889 38.4828 201.846 38.7964 202.013 39.0166C202.179 39.2368 202.493 39.2803 202.713 39.1137L206.302 36.3987ZM104.931 22.4953L205.931 36.4953L206.069 35.5047L105.069 21.5047L104.931 22.4953Z" fill="black"/>
</svg>
