<svg width="200" height="98" viewBox="0 0 200 98" fill="none" xmlns="http://www.w3.org/2000/svg">
<circle cx="30" cy="40" r="20" fill="#858585"/>
<path opacity="0.3" d="M0 76C0 68.268 6.26801 62 14 62H46C53.732 62 60 68.268 60 76V92H0V76Z" fill="#858585"/>
<rect x="82" y="8" width="110" height="90" rx="6" fill="#D9D9D9"/>
<rect x="92" y="22" width="90" height="20" rx="4" fill="#919191"/>
<rect x="92" y="22" width="90" height="20" rx="4" fill="#919191"/>
<rect x="92" y="22" width="90" height="20" rx="4" fill="#E8EDA2"/>
<rect x="92" y="60" width="90" height="20" rx="4" fill="#919191"/>
<rect x="92" y="60" width="90" height="20" rx="4" fill="#919191"/>
<rect x="92" y="60" width="90" height="20" rx="4" fill="#E8EDA2"/>
<path d="M188 3C188 7.97056 192.029 12 197 12C192.029 12 188 16.0294 188 21C188 16.0294 183.971 12 179 12C183.971 12 188 7.97056 188 3Z" fill="black" fill-opacity="0.15"/>
<path d="M188 3C188 7.97056 192.029 12 197 12C192.029 12 188 16.0294 188 21C188 16.0294 183.971 12 179 12C183.971 12 188 7.97056 188 3Z" stroke="black" stroke-width="2" stroke-linecap="round" stroke-linejoin="round"/>
</svg>
