<svg width="220" height="100" viewBox="0 0 220 100" fill="none" xmlns="http://www.w3.org/2000/svg">
<rect x="130" width="90" height="20" rx="4" fill="#919191"/>
<rect x="130" width="90" height="20" rx="4" fill="#919191"/>
<rect x="130" width="90" height="20" rx="4" fill="#9A86E1"/>
<path d="M214.125 9.5C214.125 12.6066 211.607 15.125 208.5 15.125C205.393 15.125 202.875 12.6066 202.875 9.5C202.875 6.3934 205.393 3.875 208.5 3.875C209.383 3.875 210.218 4.07824 210.961 4.44048M213.07 5.98438L208.148 10.9062L206.742 9.5" stroke="#9EFF49" stroke-width="2" stroke-linecap="round" stroke-linejoin="round"/>
<rect width="90" height="20" rx="4" fill="#919191"/>
<rect width="90" height="20" rx="4" fill="#919191"/>
<rect width="90" height="20" rx="4" fill="#9A86E1"/>
<path d="M82.1958 8.21837C82.5864 7.82785 82.5864 7.19468 82.1958 6.80416C81.8053 6.41363 81.1722 6.41363 80.7816 6.80416L82.1958 8.21837ZM76.8042 10.7816C76.4136 11.1722 76.4136 11.8053 76.8042 12.1958C77.1947 12.5864 77.8278 12.5864 78.2184 12.1958L76.8042 10.7816ZM80.7816 12.1958C81.1722 12.5864 81.8053 12.5864 82.1958 12.1958C82.5864 11.8053 82.5864 11.1722 82.1958 10.7816L80.7816 12.1958ZM78.2184 6.80416C77.8278 6.41363 77.1947 6.41363 76.8042 6.80416C76.4136 7.19468 76.4136 7.82784 76.8042 8.21837L78.2184 6.80416ZM84.125 9.5C84.125 12.0543 82.0543 14.125 79.5 14.125V16.125C83.1589 16.125 86.125 13.1589 86.125 9.5H84.125ZM79.5 14.125C76.9457 14.125 74.875 12.0543 74.875 9.5H72.875C72.875 13.1589 75.8411 16.125 79.5 16.125V14.125ZM74.875 9.5C74.875 6.94568 76.9457 4.875 79.5 4.875V2.875C75.8411 2.875 72.875 5.84111 72.875 9.5H74.875ZM79.5 4.875C82.0543 4.875 84.125 6.94568 84.125 9.5H86.125C86.125 5.84111 83.1589 2.875 79.5 2.875V4.875ZM80.7816 6.80416L78.7929 8.79289L80.2071 10.2071L82.1958 8.21837L80.7816 6.80416ZM78.7929 8.79289L76.8042 10.7816L78.2184 12.1958L80.2071 10.2071L78.7929 8.79289ZM82.1958 10.7816L80.2071 8.79289L78.7929 10.2071L80.7816 12.1958L82.1958 10.7816ZM80.2071 8.79289L78.2184 6.80416L76.8042 8.21837L78.7929 10.2071L80.2071 8.79289Z" fill="#FF6464"/>
<circle cx="45" cy="48" r="20" fill="#858585"/>
<path opacity="0.3" d="M15 84C15 76.268 21.268 70 29 70H61C68.732 70 75 76.268 75 84V100H15V84Z" fill="#858585"/>
<circle cx="173" cy="48" r="20" fill="#858585"/>
<path opacity="0.3" d="M143 84C143 76.268 149.268 70 157 70H189C196.732 70 203 76.268 203 84V100H143V84Z" fill="#858585"/>
</svg>
